<svg width="17" height="17" viewBox="0 0 17 17" fill="none" xmlns="http://www.w3.org/2000/svg">
<path d="M9.91683 1.41663H4.25016C3.471 1.41663 2.8335 2.05413 2.8335 2.83329V14.1666C2.8335 14.9458 3.471 15.5833 4.25016 15.5833H12.7502C13.5293 15.5833 14.1668 14.9458 14.1668 14.1666V5.66663L9.91683 1.41663ZM10.6252 7.79163H7.79183V8.49996H9.91683C10.3064 8.49996 10.6252 8.81871 10.6252 9.20829V11.3333C10.6252 11.7229 10.3064 12.0416 9.91683 12.0416H9.2085V12.75H7.79183V12.0416H6.37516V10.625H9.2085V9.91663H7.0835C6.69391 9.91663 6.37516 9.59788 6.37516 9.20829V7.08329C6.37516 6.69371 6.69391 6.37496 7.0835 6.37496H7.79183V5.66663H9.2085V6.37496H10.6252V7.79163Z" fill="#B4B6BC"/>
</svg>
