<svg width="24" height="18" viewBox="0 0 24 18" fill="none" xmlns="http://www.w3.org/2000/svg">
    <defs>
        <linearGradient id="paint0_linear_3_2657" x1="7.60396" y1="14.1387" x2="7.60396" y2="17.703" gradientUnits="userSpaceOnUse">
            <stop stop-color="#0069CD"/>
            <stop offset="1" stop-color="#6002E0"/>
        </linearGradient>
        <linearGradient id="paint1_linear_3_2657" x1="19.2475" y1="14.1387" x2="19.2475" y2="17.703" gradientUnits="userSpaceOnUse">
            <stop stop-color="#0069CD"/>
            <stop offset="1" stop-color="#6002E0"/>
        </linearGradient>
        <linearGradient id="paint2_linear_3_2657" x1="12.3565" y1="0" x2="12.3565" y2="14.9703" gradientUnits="userSpaceOnUse">
            <stop stop-color="#0069CD"/>
            <stop offset="1" stop-color="#6002E0"/>
        </linearGradient>
        <linearGradient id="paint3_linear_3_2657" x1="4.0395" y1="5.703" x2="4.0395" y2="9.38617" gradientUnits="userSpaceOnUse">
            <stop stop-color="#0069CD"/>
            <stop offset="1" stop-color="#6002E0"/>
        </linearGradient>
    </defs>

    <path fill-rule="evenodd" clip-rule="evenodd" d="M7.60396 16.7525C8.06328 16.7525 8.43564 16.3802 8.43564 15.9208C8.43564 15.4615 8.06328 15.0892 7.60396 15.0892C7.14463 15.0892 6.77227 15.4615 6.77227 15.9208C6.77227 16.3802 7.14463 16.7525 7.60396 16.7525ZM7.60396 17.703C8.58823 17.703 9.38613 16.9051 9.38613 15.9208C9.38613 14.9366 8.58823 14.1387 7.60396 14.1387C6.61969 14.1387 5.82178 14.9366 5.82178 15.9208C5.82178 16.9051 6.61969 17.703 7.60396 17.703Z" fill="url(#paint0_linear_3_2657)"/>
<path fill-rule="evenodd" clip-rule="evenodd" d="M19.2475 16.7525C19.7068 16.7525 20.0792 16.3802 20.0792 15.9208C20.0792 15.4615 19.7068 15.0892 19.2475 15.0892C18.7882 15.0892 18.4158 15.4615 18.4158 15.9208C18.4158 16.3802 18.7882 16.7525 19.2475 16.7525ZM19.2475 17.703C20.2318 17.703 21.0297 16.9051 21.0297 15.9208C21.0297 14.9366 20.2318 14.1387 19.2475 14.1387C18.2632 14.1387 17.4653 14.9366 17.4653 15.9208C17.4653 16.9051 18.2632 17.703 19.2475 17.703Z" fill="url(#paint1_linear_3_2657)"/>
<path fill-rule="evenodd" clip-rule="evenodd" d="M0.712891 0.475248C0.712891 0.212776 0.925666 0 1.18814 0H3.08913C3.29796 0 3.48233 0.136329 3.54352 0.335999L4.31439 2.85149H23.5248C23.6813 2.85149 23.8277 2.92853 23.9164 3.0575C24.0051 3.18646 24.0245 3.35081 23.9685 3.49693L20.6418 12.1702C20.5713 12.3539 20.3948 12.4752 20.198 12.4752H6.93808L6.29629 14.0198H19.1287C19.3912 14.0198 19.604 14.2326 19.604 14.495C19.604 14.7575 19.3912 14.9703 19.1287 14.9703H5.58418C5.42536 14.9703 5.27704 14.891 5.18888 14.7589C5.10072 14.6268 5.08437 14.4594 5.14531 14.3127L6.11638 11.9757L2.73771 0.950495H1.18814C0.925666 0.950495 0.712891 0.737719 0.712891 0.475248ZM6.97233 11.5248H19.8713L22.8335 3.80198H4.60567L6.97233 11.5248Z" fill="url(#paint2_linear_3_2657)"/>
<path fill-rule="evenodd" clip-rule="evenodd" d="M8.0791 6.17825C8.0791 5.91578 7.86633 5.703 7.60385 5.703H0.475142C0.212669 5.703 -0.000105977 5.91578 -0.000105977 6.17825C-0.000105977 6.44072 0.212669 6.6535 0.475142 6.6535H7.60385C7.86633 6.6535 8.0791 6.44072 8.0791 6.17825ZM8.0791 8.91092C8.0791 8.64845 7.86633 8.43568 7.60385 8.43568H3.20781C2.94534 8.43568 2.73257 8.64845 2.73257 8.91092C2.73257 9.1734 2.94534 9.38617 3.20781 9.38617H7.60385C7.86633 9.38617 8.0791 9.1734 8.0791 8.91092Z" fill="url(#paint3_linear_3_2657)"/>

</svg>
