<svg width="24" height="21" viewBox="0 0 24 21" fill="none" xmlns="http://www.w3.org/2000/svg">
<path fill-rule="evenodd" clip-rule="evenodd" d="M0 0.533333C0 0.238781 0.238781 0 0.533333 0H23.4667C23.7612 0 24 0.238781 24 0.533333V14.4C24 14.6946 23.7612 14.9333 23.4667 14.9333H17.1748L12.5341 20.2186C12.4283 20.339 12.274 20.4055 12.1138 20.3996C11.9536 20.3938 11.8046 20.3162 11.7079 20.1883L7.73463 14.9333H0.533333C0.238781 14.9333 0 14.6946 0 14.4V0.533333ZM1.06667 1.06667V13.8667H8C8.16714 13.8667 8.32461 13.945 8.42542 14.0783L12.1642 19.0232L16.5326 14.0481C16.6338 13.9328 16.7799 13.8667 16.9333 13.8667H22.9333V1.06667H1.06667Z" fill="url(#paint0_linear_107_775)"/>
<path fill-rule="evenodd" clip-rule="evenodd" d="M3.46666 4.26667C3.46666 3.97212 3.70544 3.73334 3.99999 3.73334H12C12.2945 3.73334 12.5333 3.97212 12.5333 4.26667C12.5333 4.56122 12.2945 4.8 12 4.8H3.99999C3.70544 4.8 3.46666 4.56122 3.46666 4.26667ZM3.46666 7.33334C3.46666 7.03879 3.70544 6.8 3.99999 6.8H8.93333C9.22788 6.8 9.46666 7.03879 9.46666 7.33334C9.46666 7.62789 9.22788 7.86667 8.93333 7.86667H3.99999C3.70544 7.86667 3.46666 7.62789 3.46666 7.33334Z" fill="url(#paint1_linear_107_775)"/>
<defs>
<linearGradient id="paint0_linear_107_775" x1="12" y1="0" x2="12" y2="20.4" gradientUnits="userSpaceOnUse">
<stop stop-color="#0069CD"/>
<stop offset="1" stop-color="#6002E0"/>
</linearGradient>
<linearGradient id="paint1_linear_107_775" x1="7.99999" y1="3.73334" x2="7.99999" y2="7.86667" gradientUnits="userSpaceOnUse">
<stop stop-color="#0069CD"/>
<stop offset="1" stop-color="#6002E0"/>
</linearGradient>
</defs>
</svg>
