<svg width="24" height="21" viewBox="0 0 24 21" fill="none" xmlns="http://www.w3.org/2000/svg">
    <defs>
        <linearGradient id="paint0_linear_3_2692" x1="12" y1="0" x2="12" y2="20.4" gradientUnits="userSpaceOnUse">
            <stop stop-color="#0069CD"/>
            <stop offset="1" stop-color="#6002E0"/>
        </linearGradient>
        <linearGradient id="paint1_linear_3_2692" x1="7.99989" y1="3.73328" x2="7.99989" y2="7.86661" gradientUnits="userSpaceOnUse">
            <stop stop-color="#0069CD"/>
            <stop offset="1" stop-color="#6002E0"/>
        </linearGradient>
    </defs>
    <path fill-rule="evenodd" clip-rule="evenodd" d="M0 0.533333C0 0.238781 0.238781 0 0.533333 0H23.4667C23.7612 0 24 0.238781 24 0.533333V14.4C24 14.6946 23.7612 14.9333 23.4667 14.9333H17.1748L12.5341 20.2186C12.4283 20.339 12.274 20.4055 12.1138 20.3996C11.9536 20.3938 11.8046 20.3162 11.7079 20.1883L7.73463 14.9333H0.533333C0.238781 14.9333 0 14.6946 0 14.4V0.533333ZM1.06667 1.06667V13.8667H8C8.16714 13.8667 8.32461 13.945 8.42542 14.0783L12.1642 19.0232L16.5326 14.0481C16.6338 13.9328 16.7799 13.8667 16.9333 13.8667H22.9333V1.06667H1.06667Z" fill="url(#paint0_linear_3_2692)"/>
<path fill-rule="evenodd" clip-rule="evenodd" d="M3.46655 4.26661C3.46655 3.97206 3.70533 3.73328 3.99989 3.73328H11.9999C12.2944 3.73328 12.5332 3.97206 12.5332 4.26661C12.5332 4.56116 12.2944 4.79994 11.9999 4.79994H3.99989C3.70533 4.79994 3.46655 4.56116 3.46655 4.26661ZM3.46655 7.33328C3.46655 7.03872 3.70533 6.79994 3.99989 6.79994H8.93322C9.22777 6.79994 9.46655 7.03872 9.46655 7.33328C9.46655 7.62783 9.22777 7.86661 8.93322 7.86661H3.99989C3.70533 7.86661 3.46655 7.62783 3.46655 7.33328Z" fill="url(#paint1_linear_3_2692)"/>

</svg>
