<svg width="22" height="22" viewBox="0 0 22 22" fill="none" xmlns="http://www.w3.org/2000/svg">
    <defs>
        <linearGradient id="paint0_linear_3_2682" x1="11" y1="2.17554" x2="11" y2="21.0327" gradientUnits="userSpaceOnUse">
            <stop stop-color="#0069CD"/>
            <stop offset="1" stop-color="#6002E0"/>
        </linearGradient>
        <linearGradient id="paint1_linear_3_2682" x1="10.9989" y1="0" x2="10.9989" y2="2.65934" gradientUnits="userSpaceOnUse">
            <stop stop-color="#0069CD"/>
            <stop offset="1" stop-color="#6002E0"/>
        </linearGradient>
    </defs>
    <path fill-rule="evenodd" clip-rule="evenodd" d="M4.02729 4.94818C5.28547 3.31635 6.97041 2.17554 9.18681 2.17554C9.45385 2.17554 9.67033 2.39201 9.67033 2.65905C9.67033 2.92609 9.45385 3.14257 9.18681 3.14257C7.35377 3.14257 5.92607 4.06924 4.79311 5.53865C3.65192 7.01874 2.83792 9.01855 2.26352 11.06C1.69094 13.0949 1.36612 15.1356 1.18468 16.6713C1.09407 17.4382 1.03949 18.0768 1.00759 18.5228C0.991645 18.7457 0.981381 18.9204 0.975124 19.0387C0.971996 19.0979 0.96987 19.143 0.968537 19.173C0.967871 19.188 0.967403 19.1992 0.967107 19.2065L0.967033 19.2084V20.0656H21.033V19.2138C21.0325 19.2065 21.0319 19.1963 21.031 19.1834C21.029 19.1533 21.0259 19.1082 21.0215 19.0489C21.0128 18.9304 20.9988 18.7556 20.9783 18.5325C20.9373 18.0862 20.8701 17.4472 20.7654 16.68C20.5558 15.1435 20.1972 13.1014 19.6018 11.0647C19.0046 9.02154 18.1788 7.01866 17.0519 5.536C15.9309 4.06119 14.5479 3.14257 12.8132 3.14257C12.5461 3.14257 12.3297 2.92609 12.3297 2.65905C12.3297 2.39201 12.5461 2.17554 12.8132 2.17554C14.9466 2.17554 16.5856 3.32441 17.8218 4.95083C19.052 6.5694 19.9185 8.70151 20.53 10.7933C21.1434 12.8916 21.5101 14.9845 21.7236 16.5492C21.8304 17.3326 21.8992 17.9858 21.9413 18.444C21.9624 18.6732 21.9768 18.8537 21.9859 18.9775C21.9905 19.0394 21.9938 19.0871 21.9959 19.1197C21.997 19.1359 21.9978 19.1484 21.9983 19.157L21.9989 19.1668L21.9991 19.1695L21.9992 19.1703C21.9992 19.1706 21.9992 19.1707 21.5165 19.199L21.9992 19.1707C21.9997 19.1801 22 19.1896 22 19.199V20.5492C22 20.8162 21.7835 21.0327 21.5165 21.0327H0.483516C0.216478 21.0327 0 20.8162 0 20.5492V19.199C0 19.1931 0.000107527 19.1872 0.000322494 19.1813L0.483516 19.199C0.000322494 19.1813 0.000329036 19.1811 0.00033797 19.1809L0.000471348 19.1774L0.000863615 19.1674C0.00121066 19.1589 0.00173322 19.1464 0.0024577 19.1301C0.00390659 19.0974 0.00616332 19.0497 0.0094391 18.9877C0.0159903 18.8638 0.0266199 18.6831 0.0430201 18.4538C0.0758136 17.9952 0.131719 17.3416 0.224322 16.5579C0.40929 14.9924 0.741752 12.8981 1.33263 10.798C1.9217 8.70449 2.77734 6.56932 4.02729 4.94818Z" fill="url(#paint0_linear_3_2682)"/>
<path fill-rule="evenodd" clip-rule="evenodd" d="M8.70215 0.483516C8.70215 0.216478 8.91863 0 9.18566 0H12.812C13.0791 0 13.2956 0.216478 13.2956 0.483516V2.65934H12.3285V0.967033H9.66918V2.65934H8.70215V0.483516Z" fill="url(#paint1_linear_3_2682)"/>

</svg>
