<svg width="25" height="25" viewBox="0 0 25 25" fill="none" xmlns="http://www.w3.org/2000/svg">
    <defs>
        <linearGradient id="paint0_linear_3_1848" x1="7.88654" y1="19.9663" x2="7.88654" y2="24.9999" gradientUnits="userSpaceOnUse">
            <stop stop-color="#0069CD"/>
            <stop offset="1" stop-color="#6002E0"/>
        </linearGradient>
        <linearGradient id="paint1_linear_3_1848" x1="19.9627" y1="19.9663" x2="19.9627" y2="24.9999" gradientUnits="userSpaceOnUse">
            <stop stop-color="#0069CD"/>
            <stop offset="1" stop-color="#6002E0"/>
        </linearGradient>
        <linearGradient id="paint2_linear_3_1848" x1="12.8158" y1="0" x2="12.8158" y2="21.1409" gradientUnits="userSpaceOnUse">
            <stop stop-color="#0069CD"/>
            <stop offset="1" stop-color="#6002E0"/>
        </linearGradient>
    </defs>
    <path fill-rule="evenodd" clip-rule="evenodd" d="M7.88654 23.6576C8.36294 23.6576 8.74914 23.1317 8.74914 22.4831C8.74914 21.8344 8.36294 21.3086 7.88654 21.3086C7.41013 21.3086 7.02393 21.8344 7.02393 22.4831C7.02393 23.1317 7.41013 23.6576 7.88654 23.6576ZM7.88654 24.9999C8.90741 24.9999 9.73498 23.8731 9.73498 22.4831C9.73498 21.0931 8.90741 19.9663 7.88654 19.9663C6.86566 19.9663 6.03809 21.0931 6.03809 22.4831C6.03809 23.8731 6.86566 24.9999 7.88654 24.9999Z" fill="url(#paint0_linear_3_1848)"/>
<path fill-rule="evenodd" clip-rule="evenodd" d="M19.9627 23.6576C20.4391 23.6576 20.8253 23.1317 20.8253 22.4831C20.8253 21.8344 20.4391 21.3086 19.9627 21.3086C19.4863 21.3086 19.1001 21.8344 19.1001 22.4831C19.1001 23.1317 19.4863 23.6576 19.9627 23.6576ZM19.9627 24.9999C20.9836 24.9999 21.8112 23.8731 21.8112 22.4831C21.8112 21.0931 20.9836 19.9663 19.9627 19.9663C18.9418 19.9663 18.1143 21.0931 18.1143 22.4831C18.1143 23.8731 18.9418 24.9999 19.9627 24.9999Z" fill="url(#paint1_linear_3_1848)"/>
<path fill-rule="evenodd" clip-rule="evenodd" d="M0.739258 0.671141C0.739258 0.30048 0.959946 0 1.23218 0H3.20386C3.42046 0 3.61168 0.192523 3.67514 0.474495L4.47468 4.02685H24.3994C24.5617 4.02685 24.7136 4.13565 24.8056 4.31778C24.8976 4.4999 24.9178 4.73199 24.8596 4.93834L21.4092 17.1867C21.3361 17.4462 21.1531 17.6175 20.949 17.6175H7.19593L6.53028 19.7987H19.8399C20.1121 19.7987 20.3328 20.0991 20.3328 20.4698C20.3328 20.8405 20.1121 21.1409 19.8399 21.1409H5.79169C5.62696 21.1409 5.47313 21.0289 5.38169 20.8424C5.29025 20.6558 5.27329 20.4194 5.3365 20.2123L6.34368 16.9119L2.83937 1.34228H1.23218C0.959946 1.34228 0.739258 1.0418 0.739258 0.671141ZM7.23146 16.2752H20.6101L23.6824 5.36913H4.7768L7.23146 16.2752Z" fill="url(#paint2_linear_3_1848)"/>

</svg>
