<svg width="16" height="14" viewBox="0 0 16 14" fill="none" xmlns="http://www.w3.org/2000/svg">
<path d="M12.1667 0.333252L15.5 3.66658L12.1667 6.99992V4.49992H8.83333V2.83325H12.1667V0.333252ZM6.33333 2.83325C5.875 2.83325 5.5 3.20825 5.5 3.66658C5.5 4.12492 5.875 4.49992 6.33333 4.49992C6.79167 4.49992 7.16667 4.12492 7.16667 3.66658C7.16667 3.20825 6.79167 2.83325 6.33333 2.83325ZM3 2.83325C2.54167 2.83325 2.16667 3.20825 2.16667 3.66658C2.16667 4.12492 2.54167 4.49992 3 4.49992C3.45833 4.49992 3.83333 4.12492 3.83333 3.66658C3.83333 3.20825 3.45833 2.83325 3 2.83325ZM3.83333 11.1666H7.16667V9.49992H3.83333V6.99992L0.5 10.3333L3.83333 13.6666V11.1666ZM9.66667 11.1666C10.125 11.1666 10.5 10.7916 10.5 10.3333C10.5 9.87492 10.125 9.49992 9.66667 9.49992C9.20833 9.49992 8.83333 9.87492 8.83333 10.3333C8.83333 10.7916 9.20833 11.1666 9.66667 11.1666ZM13 11.1666C13.4583 11.1666 13.8333 10.7916 13.8333 10.3333C13.8333 9.87492 13.4583 9.49992 13 9.49992C12.5417 9.49992 12.1667 9.87492 12.1667 10.3333C12.1667 10.7916 12.5417 11.1666 13 11.1666Z" fill="#D80027"/>
</svg>
