<svg width="24" height="23" viewBox="0 0 24 23" fill="none" xmlns="http://www.w3.org/2000/svg">
    <defs>
        <linearGradient id="paint0_linear_3_2705" x1="12" y1="0" x2="12" y2="1.27152" gradientUnits="userSpaceOnUse">
            <stop stop-color="#0069CD"/>
            <stop offset="1" stop-color="#6002E0"/>
        </linearGradient>
        <linearGradient id="paint1_linear_3_2705" x1="12" y1="10.3312" x2="12" y2="11.6027" gradientUnits="userSpaceOnUse">
            <stop stop-color="#0069CD"/>
            <stop offset="1" stop-color="#6002E0"/>
        </linearGradient>
        <linearGradient id="paint2_linear_3_2705" x1="12" y1="20.8212" x2="12" y2="22.0927" gradientUnits="userSpaceOnUse">
            <stop stop-color="#0069CD"/>
            <stop offset="1" stop-color="#6002E0"/>
        </linearGradient>
    </defs>

    <path fill-rule="evenodd" clip-rule="evenodd" d="M0 0.635762C0 0.28464 0.28464 0 0.635762 0H23.3642C23.7154 0 24 0.28464 24 0.635762C24 0.986883 23.7154 1.27152 23.3642 1.27152H0.635762C0.28464 1.27152 0 0.986883 0 0.635762Z" fill="url(#paint0_linear_3_2705)"/>
<path fill-rule="evenodd" clip-rule="evenodd" d="M0 10.9669C0 10.6158 0.28464 10.3312 0.635762 10.3312H23.3642C23.7154 10.3312 24 10.6158 24 10.9669C24 11.3181 23.7154 11.6027 23.3642 11.6027H0.635762C0.28464 11.6027 0 11.3181 0 10.9669Z" fill="url(#paint1_linear_3_2705)"/>
<path fill-rule="evenodd" clip-rule="evenodd" d="M0 21.4569C0 21.1058 0.28464 20.8212 0.635762 20.8212H23.3642C23.7154 20.8212 24 21.1058 24 21.4569C24 21.8081 23.7154 22.0927 23.3642 22.0927H0.635762C0.28464 22.0927 0 21.8081 0 21.4569Z" fill="url(#paint2_linear_3_2705)"/>

</svg>
