<svg width="50" height="19" viewBox="0 0 50 19" fill="none" xmlns="http://www.w3.org/2000/svg">
    <defs>
        <linearGradient id="paint0_linear_3_2163" x1="41.5816" y1="-5.5452" x2="10.8804" y2="13.7573" gradientUnits="userSpaceOnUse">
            <stop offset="0.0337748" stop-color="#1E8FBD"/>
            <stop offset="1" stop-color="#004481"/>
        </linearGradient>
    </defs>
    <rect width="50" height="18.9189" rx="9.45946" fill="url(#paint0_linear_3_2163)"/>
<rect width="50" height="18.9189" rx="9.45946" fill="#E3ECF4"/>
<path d="M18.7179 11.7552L20.588 5.9447H21.9405L19.3917 13.0541H18.4786L18.7179 11.7552ZM16.9893 5.9447L18.8448 11.7552L19.0987 13.0541H18.1807L15.6417 5.9447H16.9893ZM28.3761 5.9447V13.0541H27.1505L23.962 7.9613V13.0541H22.7364V5.9447H23.962L27.1602 11.0472V5.9447H28.3761ZM32.0479 13.0541H30.5294L30.5391 12.0824H32.0479C32.4874 12.0824 32.8552 11.9864 33.1514 11.7943C33.4509 11.6023 33.6755 11.3272 33.8253 10.9691C33.9783 10.611 34.0548 10.1846 34.0548 9.68982V9.30408C34.0548 8.91996 34.0108 8.57979 33.9229 8.28357C33.8383 7.98735 33.7113 7.73832 33.5421 7.5365C33.3761 7.33468 33.171 7.18168 32.9268 7.07751C32.686 6.97335 32.4076 6.92126 32.0919 6.92126H30.5001V5.9447H32.0919C32.5639 5.9447 32.9952 6.02445 33.3858 6.18396C33.7764 6.34021 34.1134 6.56645 34.3966 6.86267C34.683 7.15889 34.9027 7.51371 35.0557 7.92712C35.2087 8.34054 35.2852 8.80278 35.2852 9.31384V9.68982C35.2852 10.2009 35.2087 10.6631 35.0557 11.0765C34.9027 11.4899 34.683 11.8448 34.3966 12.141C34.1101 12.434 33.7683 12.6602 33.3712 12.8197C32.9773 12.976 32.5362 13.0541 32.0479 13.0541ZM31.2081 5.9447V13.0541H29.9825V5.9447H31.2081ZM32.5069 9.05017V9.86072H29.2257V9.05017H32.5069Z" fill="#006CB1"/>

</svg>
