<svg width="45" height="18" viewBox="0 0 45 18" fill="none" xmlns="http://www.w3.org/2000/svg">

    <rect width="45" height="18" rx="9" fill="url(#paint0_linear_3_2168)"/>
<rect width="45" height="18" rx="9" fill="#E3ECF4"/>
<path d="M26.75 6.42854H25.2321L24.8705 5.38619C24.8456 5.31486 24.7998 5.25321 24.7394 5.20965C24.6791 5.1661 24.6072 5.14276 24.5335 5.14282H21.1094C20.9587 5.14282 20.8237 5.2404 20.7734 5.38619L20.4107 6.42854H18.8929C18.3996 6.42854 18 6.83951 18 7.3469V12.5816C18 13.089 18.3996 13.5 18.8929 13.5H26.75C27.2433 13.5 27.6429 13.089 27.6429 12.5816V7.3469C27.6429 6.83951 27.2433 6.42854 26.75 6.42854ZM26.8393 12.5816C26.8393 12.6321 26.7991 12.6734 26.75 12.6734H18.8929C18.8438 12.6734 18.8036 12.6321 18.8036 12.5816V7.3469C18.8036 7.29639 18.8438 7.25507 18.8929 7.25507H20.9766L21.1674 6.70634L21.423 5.96935H24.2188L24.4743 6.70634L24.6652 7.25507H26.75C26.7991 7.25507 26.8393 7.29639 26.8393 7.3469V12.5816ZM22.8214 7.98976C21.8348 7.98976 21.0357 8.8117 21.0357 9.8265C21.0357 10.8413 21.8348 11.6632 22.8214 11.6632C23.808 11.6632 24.6071 10.8413 24.6071 9.8265C24.6071 8.8117 23.808 7.98976 22.8214 7.98976ZM22.8214 10.9285C22.2299 10.9285 21.75 10.4349 21.75 9.8265C21.75 9.21808 22.2299 8.72445 22.8214 8.72445C23.4129 8.72445 23.8929 9.21808 23.8929 9.8265C23.8929 10.4349 23.4129 10.9285 22.8214 10.9285Z" fill="#006CB1"/>
    <defs>
        <linearGradient id="paint0_linear_3_2169" x1="37.4235" y1="-5.27586" x2="8.94371" y2="11.6621" gradientUnits="userSpaceOnUse">
            <stop offset="0.0337748" stop-color="#1E8FBD"/>
            <stop offset="1" stop-color="#004481"/>
        </linearGradient>
    </defs>
</svg>
