<svg width="18" height="20" viewBox="0 0 18 20" fill="none" xmlns="http://www.w3.org/2000/svg">
    <defs>
        <linearGradient id="paint0_linear_3_1736" x1="9" y1="2.91608" x2="9" y2="19.7094" gradientUnits="userSpaceOnUse">
            <stop stop-color="#0069CD"/>
            <stop offset="1" stop-color="#6002E0"/>
        </linearGradient>
        <linearGradient id="paint1_linear_3_1736" x1="8.9506" y1="-6.10352e-05" x2="8.9506" y2="6.13402" gradientUnits="userSpaceOnUse">
            <stop stop-color="#0069CD"/>
            <stop offset="1" stop-color="#6002E0"/>
        </linearGradient>
        <linearGradient id="paint2_linear_3_1736" x1="8.95024" y1="17.5975" x2="8.95024" y2="14.4802" gradientUnits="userSpaceOnUse">
            <stop stop-color="#0069CD"/>
            <stop offset="1" stop-color="#6002E0"/>
        </linearGradient>
    </defs>
    ]<path fill-rule="evenodd" clip-rule="evenodd" d="M1.51016 3.28053C1.52965 3.07394 1.7031 2.91608 1.91062 2.91608H16.1899C16.3984 2.91608 16.5723 3.07536 16.5906 3.28303L17.9984 19.2719C18.0083 19.3842 17.9706 19.4956 17.8944 19.5788C17.8182 19.662 17.7106 19.7094 17.5978 19.7094H0.402236C0.288986 19.7094 0.180983 19.6616 0.104756 19.5779C0.0285296 19.4941 -0.00885713 19.3821 0.00177964 19.2694L1.51016 3.28053ZM2.27669 3.72055L0.844203 18.9049H17.1586L15.8216 3.72055H2.27669Z" fill="url(#paint0_linear_3_1736)"/>
<path fill-rule="evenodd" clip-rule="evenodd" d="M5.02881 0.402174C5.02881 0.180025 5.2089 -6.10352e-05 5.43104 -6.10352e-05H12.4701C12.6923 -6.10352e-05 12.8724 0.180025 12.8724 0.402174V5.73178C12.8724 5.95393 12.6923 6.13402 12.4701 6.13402C12.248 6.13402 12.0679 5.95393 12.0679 5.73178V0.804408H5.83328V5.73178C5.83328 5.95393 5.65319 6.13402 5.43104 6.13402C5.2089 6.13402 5.02881 5.95393 5.02881 5.73178V0.402174Z" fill="url(#paint1_linear_3_1736)"/>
<path fill-rule="evenodd" clip-rule="evenodd" d="M5.53125 17.1952C5.53125 17.4174 5.71134 17.5975 5.93348 17.5975H11.967C12.1892 17.5975 12.3692 17.4174 12.3692 17.1952C12.3692 16.9731 12.1892 16.793 11.967 16.793H5.93348C5.71134 16.793 5.53125 16.9731 5.53125 17.1952ZM6.53684 14.8824C6.53684 15.1045 6.71692 15.2846 6.93907 15.2846H10.7603C10.9824 15.2846 11.1625 15.1045 11.1625 14.8824C11.1625 14.6602 10.9824 14.4802 10.7603 14.4802H6.93907C6.71692 14.4802 6.53684 14.6602 6.53684 14.8824Z" fill="url(#paint2_linear_3_1736)"/>

</svg>
