<svg width="14" height="9" viewBox="0 0 14 9" fill="none" xmlns="http://www.w3.org/2000/svg">
<path d="M5.68213 8.22087L0.280822 1.90899C-0.356614 1.16635 0.161443 4.2337e-07 1.12886 4.2337e-07L11.9315 4.2337e-07C12.148 -0.000189356 12.36 0.0634271 12.542 0.183232C12.7241 0.303037 12.8685 0.473951 12.958 0.675508C13.0474 0.877064 13.0782 1.10072 13.0466 1.31969C13.0149 1.53866 12.9222 1.74366 12.7795 1.91014L7.37821 8.21972C7.2725 8.34338 7.14213 8.4425 6.99587 8.51042C6.8496 8.57833 6.69081 8.61346 6.53017 8.61346C6.36952 8.61346 6.21074 8.57833 6.06447 8.51042C5.9182 8.4425 5.78784 8.34338 5.68213 8.21972V8.22087Z" fill="#006CB1"/>
</svg>
