<svg width="20" height="20" viewBox="0 0 20 20" fill="none" xmlns="http://www.w3.org/2000/svg">
<g clip-path="url(#clip0_1212_1722)">
<path d="M15 6.66675C15 3.90841 12.7583 1.66675 9.99996 1.66675C7.24163 1.66675 4.99996 3.90841 4.99996 6.66675C4.99996 10.4167 9.99996 15.8334 9.99996 15.8334C9.99996 15.8334 15 10.4167 15 6.66675ZM8.33329 6.66675C8.33329 5.75008 9.08329 5.00008 9.99996 5.00008C10.9166 5.00008 11.6666 5.75008 11.6666 6.66675C11.6666 7.58341 10.925 8.33341 9.99996 8.33341C9.08329 8.33341 8.33329 7.58341 8.33329 6.66675ZM4.16663 16.6667V18.3334H15.8333V16.6667H4.16663Z" fill="#D7C948"/>
</g>
<defs>
<clipPath id="clip0_1212_1722">
<rect width="20" height="20" fill="white"/>
</clipPath>
</defs>
</svg>
