<svg width="15" height="17" viewBox="0 0 15 17" fill="none" xmlns="http://www.w3.org/2000/svg">
<path d="M11.8283 0.883667V3.08064H14.0252V4.54528H11.8283V6.74225H10.3636V4.54528H8.16664V3.08064H10.3636V0.883667H11.8283ZM5.96967 9.67155C6.77523 9.67155 7.43432 9.01246 7.43432 8.2069C7.43432 7.40134 6.77523 6.74225 5.96967 6.74225C5.16411 6.74225 4.50502 7.40134 4.50502 8.2069C4.50502 9.01246 5.16411 9.67155 5.96967 9.67155ZM7.43432 2.53139V5.27761H9.63129V7.47458H11.7697C11.8063 7.76018 11.8283 8.05311 11.8283 8.35336C11.8283 10.7847 9.87295 13.6627 5.96967 16.9948C2.06639 13.6627 0.111084 10.7847 0.111084 8.35336C0.111084 4.70639 2.89391 2.34831 5.96967 2.34831C6.46765 2.34831 6.95831 2.4069 7.43432 2.53139Z" fill="#323232" fill-opacity="0.5"/>
</svg>
