<svg width="20" height="20" viewBox="0 0 20 20" fill="none" xmlns="http://www.w3.org/2000/svg">
<path d="M19.6734 17.5531C19.0306 16.98 18.4677 16.323 18.0001 15.5998C17.4896 14.6015 17.1836 13.5113 17.1001 12.3931V9.09977C17.0974 8.69974 17.0617 8.30061 16.9934 7.90644C16.4687 7.80155 15.9644 7.61244 15.5001 7.34644C15.6771 7.91634 15.767 8.50969 15.7668 9.10644V12.3998C15.8485 13.7638 16.2237 15.0941 16.8668 16.2998C17.327 17.0291 17.8732 17.7006 18.4934 18.2998H1.42011C2.04039 17.7006 2.58651 17.0291 3.04678 16.2998C3.68986 15.0941 4.06507 13.7638 4.14678 12.3998V9.09977C4.14327 8.32823 4.29199 7.56357 4.58441 6.84959C4.87683 6.1356 5.30722 5.4863 5.85092 4.93888C6.39463 4.39146 7.04098 3.95666 7.75296 3.65938C8.46494 3.3621 9.22857 3.20818 10.0001 3.20644C11.1293 3.20734 12.2331 3.54127 13.1734 4.16644C13.0698 3.78576 13.0116 3.39414 13.0001 2.99977V2.57977C12.304 2.23735 11.5562 2.0121 10.7868 1.91311V1.07311C10.7868 0.837063 10.693 0.610688 10.5261 0.443781C10.3592 0.276873 10.1328 0.183105 9.89678 0.183105C9.66074 0.183105 9.43436 0.276873 9.26746 0.443781C9.10055 0.610688 9.00678 0.837063 9.00678 1.07311V1.94644C7.28393 2.18947 5.70716 3.0476 4.56759 4.36239C3.42803 5.67719 2.8026 7.35986 2.80678 9.09977V12.3931C2.72328 13.5113 2.4173 14.6015 1.90678 15.5998C1.44737 16.3213 0.893577 16.9783 0.260114 17.5531C0.189002 17.6156 0.132008 17.6925 0.0929255 17.7787C0.0538429 17.8649 0.0335671 17.9585 0.0334473 18.0531V18.9598C0.0334473 19.1366 0.103685 19.3062 0.228709 19.4312C0.353734 19.5562 0.523303 19.6264 0.700114 19.6264H19.2334C19.4103 19.6264 19.5798 19.5562 19.7049 19.4312C19.8299 19.3062 19.9001 19.1366 19.9001 18.9598V18.0531C19.9 17.9585 19.8797 17.8649 19.8406 17.7787C19.8016 17.6925 19.7446 17.6156 19.6734 17.5531Z" fill="#909090"/>
</svg>
