<svg width="25" height="26" viewBox="0 0 25 26" fill="none" xmlns="http://www.w3.org/2000/svg">
<path d="M10 25.8533C10.42 25.8436 10.823 25.6858 11.1378 25.4076C11.4526 25.1294 11.6588 24.7489 11.72 24.3333H8.21338C8.27636 24.7602 8.49226 25.1497 8.82091 25.4293C9.14957 25.7089 9.5686 25.8595 10 25.8533Z" fill="#909090"/>
<path d="M19.6734 21.5534C19.0306 20.9802 18.4677 20.3232 18.0001 19.6C17.4896 18.6017 17.1836 17.5115 17.1001 16.3934V13.1C17.0974 12.7 17.0617 12.3009 16.9934 11.9067C16.4687 11.8018 15.9644 11.6127 15.5001 11.3467C15.6771 11.9166 15.767 12.5099 15.7668 13.1067V16.4C15.8485 17.764 16.2237 19.0943 16.8668 20.3C17.327 21.0294 17.8732 21.7008 18.4934 22.3H1.42011C2.04039 21.7008 2.58651 21.0294 3.04678 20.3C3.68986 19.0943 4.06507 17.764 4.14678 16.4V13.1C4.14327 12.3285 4.29199 11.5638 4.58441 10.8498C4.87683 10.1358 5.30722 9.48655 5.85092 8.93913C6.39463 8.3917 7.04098 7.9569 7.75296 7.65963C8.46494 7.36235 9.22857 7.20843 10.0001 7.20668C11.1293 7.20759 12.2331 7.54152 13.1734 8.16668C13.0698 7.78601 13.0116 7.39439 13.0001 7.00002V6.58002C12.304 6.23759 11.5562 6.01234 10.7868 5.91335V5.07335C10.7868 4.83731 10.693 4.61093 10.5261 4.44402C10.3592 4.27712 10.1328 4.18335 9.89678 4.18335C9.66074 4.18335 9.43436 4.27712 9.26746 4.44402C9.10055 4.61093 9.00678 4.83731 9.00678 5.07335V5.94668C7.28393 6.18972 5.70716 7.04785 4.56759 8.36264C3.42803 9.67743 2.8026 11.3601 2.80678 13.1V16.3934C2.72328 17.5115 2.4173 18.6017 1.90678 19.6C1.44737 20.3216 0.893577 20.9785 0.260114 21.5534C0.189002 21.6158 0.132008 21.6927 0.0929255 21.7789C0.0538429 21.8651 0.0335671 21.9587 0.0334473 22.0534V22.96C0.0334473 23.1368 0.103685 23.3064 0.228709 23.4314C0.353734 23.5564 0.523303 23.6267 0.700114 23.6267H19.2334C19.4103 23.6267 19.5798 23.5564 19.7049 23.4314C19.8299 23.3064 19.9001 23.1368 19.9001 22.96V22.0534C19.9 21.9587 19.8797 21.8651 19.8406 21.7789C19.8016 21.6927 19.7446 21.6158 19.6734 21.5534V21.5534Z" fill="#909090"/>
<path d="M20 10C22.7614 10 25 7.76142 25 5C25 2.23858 22.7614 0 20 0C17.2386 0 15 2.23858 15 5C15 7.76142 17.2386 10 20 10Z" fill="#EB5757"/>
</svg>
