<svg width="18" height="16" viewBox="0 0 18 16" fill="none" xmlns="http://www.w3.org/2000/svg">
<path d="M8.86279 5.06537L11.4395 7.718L11.4517 7.57905C11.4517 6.18535 10.3516 5.05273 8.99776 5.05273L8.86279 5.06537Z" fill="#C4C4C4"/>
<path d="M8.99794 3.36844C11.2556 3.36844 13.0879 5.25477 13.0879 7.57898C13.0879 7.89687 13.0515 8.2061 12.9844 8.5033C12.8984 8.88434 12.972 9.29537 13.2441 9.57557L14.5348 10.9042C14.903 11.2834 15.5071 11.3139 15.8732 10.9328C16.351 10.4355 16.7782 9.88658 17.1465 9.29496C17.7996 8.24601 17.7993 6.91192 17.1467 5.86273C15.4266 3.09747 12.4242 1.26318 8.99797 1.26318C8.3878 1.26318 7.79158 1.32294 7.21362 1.4361C6.50446 1.57494 6.30479 2.4345 6.80888 2.95225L7.03806 3.18763C7.3207 3.47792 7.74828 3.55714 8.14322 3.46669C8.41865 3.4036 8.7045 3.36844 8.99794 3.36844Z" fill="#C4C4C4"/>
<path d="M1.32427 0.552471C1.04231 0.842746 1.04231 1.30462 1.32427 1.5949L2.68301 2.99369L3.05521 3.37686C2.191 4.07243 1.44248 4.91474 0.84833 5.86952C0.198068 6.91445 0.199044 8.24303 0.847914 9.28883C2.56584 12.0576 5.57245 13.8947 8.99795 13.8947C10.2659 13.8947 11.4765 13.6421 12.5849 13.1832L12.9325 13.5411L14.7827 15.449C15.0753 15.7508 15.5594 15.7515 15.8528 15.4505C16.1351 15.1611 16.1356 14.6995 15.8539 14.4095L2.3975 0.552546C2.10372 0.250027 1.61809 0.249993 1.32427 0.552471ZM5.34152 5.72633L6.60532 7.02739C6.56851 7.20845 6.54397 7.38948 6.54397 7.57895C6.54397 8.97265 7.64416 10.1053 8.99795 10.1053C9.182 10.1053 9.35788 10.08 9.52966 10.0421L10.7935 11.3432C10.2495 11.6211 9.64419 11.7895 8.99795 11.7895C6.74029 11.7895 4.90797 9.90317 4.90797 7.57895C4.90797 6.9137 5.07158 6.29053 5.34152 5.72633Z" fill="#C4C4C4"/>
</svg>
