<svg width="13" height="13" viewBox="0 0 13 13" fill="none" xmlns="http://www.w3.org/2000/svg">
<path d="M7.20833 4.375H5.79167V5.79167H7.20833V4.375ZM10.0417 4.375H8.625V5.79167H10.0417V4.375ZM12.1667 8.97917C11.2812 8.97917 10.4312 8.8375 9.63792 8.57542C9.39 8.4975 9.11375 8.55417 8.91542 8.74542L7.35708 10.3038C5.3525 9.28375 3.70917 7.6475 2.68917 5.64292L4.2475 4.0775C4.44583 3.88625 4.5025 3.61 4.42458 3.36208C4.1625 2.56875 4.02083 1.71875 4.02083 0.833333C4.02083 0.44375 3.70208 0.125 3.3125 0.125H0.833333C0.44375 0.125 0.125 0.44375 0.125 0.833333C0.125 7.48458 5.51542 12.875 12.1667 12.875C12.5562 12.875 12.875 12.5562 12.875 12.1667V9.6875C12.875 9.29792 12.5562 8.97917 12.1667 8.97917ZM11.4583 4.375V5.79167H12.875V4.375H11.4583Z" fill="#323232" fill-opacity="0.5"/>
</svg>
