<svg width="20" height="18" viewBox="0 0 20 18" fill="none" xmlns="http://www.w3.org/2000/svg">
<path fill-rule="evenodd" clip-rule="evenodd" d="M14.1608 11.1719C15.2024 10.0201 15.8258 8.55572 15.8258 6.96161C15.8258 3.25196 12.4495 0.24469 8.28462 0.24469C4.11972 0.24469 0.743408 3.25196 0.743408 6.96161C0.743408 10.6713 4.11972 13.6785 8.28462 13.6785C10.0702 13.6785 11.7108 13.1258 13.0025 12.202L18.4478 17.0546C18.7673 17.3394 19.2855 17.3395 19.6051 17.0549C19.9248 16.7703 19.9249 16.3088 19.6054 16.024L14.1608 11.1719ZM8.28462 12.3889C4.91936 12.3889 2.19128 9.95904 2.19128 6.96161C2.19128 3.96419 4.91936 1.5343 8.28462 1.5343C11.6499 1.5343 14.378 3.96419 14.378 6.96161C14.378 9.95904 11.6499 12.3889 8.28462 12.3889Z" fill="#707070"/>
</svg>
