<svg width="20" height="18" viewBox="0 0 20 18" fill="none" xmlns="http://www.w3.org/2000/svg">
<path fill-rule="evenodd" clip-rule="evenodd" d="M14.1607 11.1719C15.2023 10.0201 15.8258 8.55572 15.8258 6.96161C15.8258 3.25196 12.4495 0.24469 8.28456 0.24469C4.11966 0.24469 0.743347 3.25196 0.743347 6.96161C0.743347 10.6713 4.11966 13.6785 8.28456 13.6785C10.0701 13.6785 11.7107 13.1258 13.0025 12.202L18.4477 17.0546C18.7672 17.3394 19.2854 17.3395 19.6051 17.0549C19.9248 16.7703 19.9249 16.3088 19.6054 16.024L14.1607 11.1719ZM8.28456 12.3889C4.9193 12.3889 2.19122 9.95904 2.19122 6.96161C2.19122 3.96419 4.9193 1.5343 8.28456 1.5343C11.6498 1.5343 14.3779 3.96419 14.3779 6.96161C14.3779 9.95904 11.6498 12.3889 8.28456 12.3889Z" fill="#707070"/>
</svg>
